<?xml version="1.0" standalone="no"?><svg xmlns:xlink="http://www.w3.org/1999/xlink" xmlns="http://www.w3.org/2000/svg" viewBox="0 0 1500 187.49999999999997" preserveAspectRatio="xMaxYMax slice"><g transform="scale(1.1811023622047243)"><rect x="0" y="0" width="1270" height="158.75" fill="transparent"/><rect x="110.06666666666668" y="4.233333333333333" width="2.116666666666667" height="2.116666666666667" fill="transparent"/><rect x="173.56666666666666" y="4.233333333333333" width="2.116666666666667" height="2.116666666666667" fill="transparent"/><rect x="184.15" y="4.233333333333333" width="2.116666666666667" height="2.116666666666667" fill="transparent"/><rect x="321.73333333333335" y="4.233333333333333" width="2.116666666666667" height="2.116666666666667" fill="transparent"/><rect x="353.48333333333335" y="4.233333333333333" width="2.116666666666667" height="2.116666666666667" fill="transparent"/><rect x="416.98333333333335" y="4.233333333333333" width="2.116666666666667" height="2.116666666666667" fill="transparent"/><rect x="448.73333333333335" y="4.233333333333333" width="2.116666666666667" height="2.116666666666667" fill="transparent"/><circle cx="450.32" cy="5.82" r="0.53" fill="#ff879f"/><rect x="586.3166666666667" y="4.233333333333333" width="2.116666666666667" height="2.116666666666667" fill="transparent"/><rect x="607.4833333333333" y="4.233333333333333" width="2.116666666666667" height="2.116666666666667" fill="transparent"/><rect x="692.1500000000001" y="4.233333333333333" width="2.116666666666667" height="2.116666666666667" fill="transparent"/><rect x="713.3166666666667" y="4.233333333333333" width="2.116666666666667" height="2.116666666666667" fill="transparent"/><rect x="819.1500000000001" y="4.233333333333333" width="2.116666666666667" height="2.116666666666667" fill="transparent"/><rect x="893.2333333333333" y="4.233333333333333" width="2.116666666666667" height="2.116666666666667" fill="transparent"/><rect x="914.4000000000001" y="4.233333333333333" width="2.116666666666667" height="2.116666666666667" fill="transparent"/><rect x="977.9000000000001" y="4.233333333333333" width="2.116666666666667" height="2.116666666666667" fill="transparent"/><rect x="1041.4" y="4.233333333333333" width="2.116666666666667" height="2.116666666666667" fill="transparent"/><rect x="1051.9833333333333" y="4.233333333333333" width="2.116666666666667" height="2.116666666666667" fill="transparent"/><rect x="1104.9" y="4.233333333333333" width="2.116666666666667" height="2.116666666666667" fill="transparent"/><path d="M 1104.9 6.35 A 1.06 1.06 0 0 1  1105.96 5.29 L 1104.9 6.35 A 1.06 1.06 0 0 0 1105.96 5.29" fill="#66686e"/><rect x="1178.9833333333333" y="4.233333333333333" width="2.116666666666667" height="2.116666666666667" fill="transparent"/><rect x="1242.4833333333333" y="4.233333333333333" width="2.116666666666667" height="2.116666666666667" fill="transparent"/><rect x="14.478000000000002" y="14.478000000000002" width="2.7939999999999987" height="2.7939999999999987" fill="transparent"/><rect x="67.39466666666667" y="14.478000000000002" width="2.7939999999999987" height="2.7939999999999987" fill="transparent"/><rect x="268.47800000000007" y="14.478000000000002" width="2.7939999999999987" height="2.7939999999999987" fill="transparent"/><g transform="translate(269.88,14.48) scale(0.06999999999999999) rotate(0)"><path d="M10 0L20 10L10 20L0 10L10 0Z" fill="#bdbdc0"/></g><circle cx="270.58" cy="16.580000000000002" r="0.7" fill="#dadbdc"/><rect x="289.6446666666667" y="14.478000000000002" width="2.7939999999999987" height="2.7939999999999987" fill="transparent"/><circle cx="290.34" cy="15.18" r="0.7" fill="#ffbecb"/><rect x="353.1446666666667" y="14.478000000000002" width="2.7939999999999987" height="2.7939999999999987" fill="transparent"/><rect x="354.54" y="14.48" width="1.4" height="1.4" fill="#ffd9e0"/><circle cx="353.84" cy="16.580000000000002" r="0.7" fill="#ff8da3"/><rect x="395.47800000000007" y="14.478000000000002" width="2.7939999999999987" height="2.7939999999999987" fill="transparent"/><circle cx="396.18" cy="16.580000000000002" r="0.7" fill="#b4b5b8"/><rect x="416.6446666666667" y="14.478000000000002" width="2.7939999999999987" height="2.7939999999999987" fill="transparent"/><rect x="458.97800000000007" y="14.478000000000002" width="2.7939999999999987" height="2.7939999999999987" fill="transparent"/><g transform="translate(460.38,14.48) scale(0.06999999999999999) rotate(0)"><path fill-rule="evenodd" clip-rule="evenodd" d="M10 20C15.5228 20 20 15.5228 20 10C20 4.47715 15.5228 0 10 0C4.47715 0 0 4.47715 0 10C0 15.5228 4.47715 20 10 20ZM10 17C13.866 17 17 13.866 17 10C17 6.13401 13.866 3 10 3C6.13401 3 3 6.13401 3 10C3 13.866 6.13401 17 10 17Z" fill="#fff8dd"/></g><g transform="translate(458.98,15.88) scale(0.06999999999999999) rotate(0)"><path d="M19.9981 0.00193429L3.72652 -7.68637e-07L8.4784 4.75382L0 13.2345L6.76585 20L15.2462 11.5208L20 16.2746L19.9981 0.00193429Z" fill="#c1c1c4"/></g><rect x="702.3946666666667" y="14.478000000000002" width="2.7939999999999987" height="2.7939999999999987" fill="transparent"/><g transform="translate(702.39,15.88) scale(0.06999999999999999) rotate(0)"><path d="M10 0L20 10L10 20L0 10L10 0Z" fill="#eaeaeb"/></g><rect x="808.2280000000001" y="14.478000000000002" width="2.7939999999999987" height="2.7939999999999987" fill="transparent"/><rect x="998.7280000000001" y="14.478000000000002" width="2.7939999999999987" height="2.7939999999999987" fill="transparent"/><rect x="1062.228" y="14.478000000000002" width="2.7939999999999987" height="2.7939999999999987" fill="transparent"/><rect x="1072.8113333333333" y="14.478000000000002" width="2.7939999999999987" height="2.7939999999999987" fill="transparent"/><g transform="translate(1074.21,14.48) scale(0.06999999999999999) rotate(0)"><path d="M10 0L20 10L10 20L0 10L10 0Z" fill="#ffdb55"/></g><rect x="1072.81" y="15.88" width="1.4" height="1.4" fill="#ffe47f"/><rect x="1136.3113333333333" y="14.478000000000002" width="2.7939999999999987" height="2.7939999999999987" fill="transparent"/><g transform="translate(1137.71,14.48) scale(0.06999999999999999) rotate(0)"><path d="M19.9981 0.00193429L3.72652 -7.68637e-07L8.4784 4.75382L0 13.2345L6.76585 20L15.2462 11.5208L20 16.2746L19.9981 0.00193429Z" fill="#68696f"/></g><rect x="1263.3113333333333" y="14.478000000000002" width="2.7939999999999987" height="2.7939999999999987" fill="transparent"/><rect x="119.97266666666667" y="24.72266666666667" width="3.471333333333333" height="3.471333333333333" fill="transparent"/><rect x="204.63933333333335" y="24.72266666666667" width="3.471333333333333" height="3.471333333333333" fill="transparent"/><rect x="310.47266666666667" y="24.72266666666667" width="3.471333333333333" height="3.471333333333333" fill="transparent"/><rect x="342.22266666666667" y="24.72266666666667" width="3.471333333333333" height="3.471333333333333" fill="transparent"/><g transform="translate(342.22,26.46) scale(0.087) rotate(0)"><path d="M19.9981 0.00193429L3.72652 -7.68637e-07L8.4784 4.75382L0 13.2345L6.76585 20L15.2462 11.5208L20 16.2746L19.9981 0.00193429Z" fill="#ffd640"/></g><rect x="469.22266666666667" y="24.72266666666667" width="3.471333333333333" height="3.471333333333333" fill="transparent"/><g transform="translate(469.22,24.72) scale(0.087) rotate(0)"><path d="M10 0L20 10L10 20L0 10L10 0Z" fill="#fffcfc"/></g><g transform="translate(470.96,26.46) scale(0.087) rotate(0)"><path d="M10 0L20 10L10 20L0 10L10 0Z" fill="#ffe997"/></g><rect x="871.3893333333334" y="24.72266666666667" width="3.471333333333333" height="3.471333333333333" fill="transparent"/><g transform="translate(873.13,24.72) scale(0.087) rotate(0)"><path d="M10 0L20 10L10 20L0 10L10 0Z" fill="#fff3c6"/></g><rect x="1051.306" y="24.72266666666667" width="3.471333333333333" height="3.471333333333333" fill="transparent"/><rect x="1146.556" y="24.72266666666667" width="3.471333333333333" height="3.471333333333333" fill="transparent"/><rect x="1199.4726666666668" y="24.72266666666667" width="3.471333333333333" height="3.471333333333333" fill="transparent"/><rect x="98.46733333333333" y="34.967333333333336" width="4.148666666666667" height="4.148666666666667" fill="transparent"/><rect x="331.3006666666667" y="34.967333333333336" width="4.148666666666667" height="4.148666666666667" fill="transparent"/><rect x="363.0506666666667" y="34.967333333333336" width="4.148666666666667" height="4.148666666666667" fill="transparent"/><rect x="712.3006666666668" y="34.967333333333336" width="4.148666666666667" height="4.148666666666667" fill="transparent"/><path d="M 712.3 37.04 A 2.07 2.07 0 0 1  714.37 34.97 L 712.3 37.04 A 2.07 2.07 0 0 0 714.37 34.97" fill="#fff4cd"/><rect x="807.5506666666668" y="34.967333333333336" width="4.148666666666667" height="4.148666666666667" fill="transparent"/><path d="M 809.63 37.04 A 2.07 2.07 0 0 1  811.7 39.11 L 809.63 37.04 A 2.07 2.07 0 0 0 811.7 39.11" fill="#fff2f4"/><rect x="839.3006666666668" y="34.967333333333336" width="4.148666666666667" height="4.148666666666667" fill="transparent"/><g transform="translate(841.38,37.04) scale(0.1035) rotate(0)"><path fill-rule="evenodd" clip-rule="evenodd" d="M10 20C15.5228 20 20 15.5228 20 10C20 4.47715 15.5228 0 10 0C4.47715 0 0 4.47715 0 10C0 15.5228 4.47715 20 10 20ZM10 17C13.866 17 17 13.866 17 10C17 6.13401 13.866 3 10 3C6.13401 3 3 6.13401 3 10C3 13.866 6.13401 17 10 17Z" fill="#acacb0"/></g><rect x="923.9673333333334" y="34.967333333333336" width="4.148666666666667" height="4.148666666666667" fill="transparent"/><rect x="934.5506666666668" y="34.967333333333336" width="4.148666666666667" height="4.148666666666667" fill="transparent"/><path d="M 936.63 34.97 A 2.07 2.07 0 0 1  938.7 37.04 L 936.63 34.97 A 2.07 2.07 0 0 0 938.7 37.04" fill="#a1a2a5"/><rect x="945.1340000000001" y="34.967333333333336" width="4.148666666666667" height="4.148666666666667" fill="transparent"/><rect x="320.3786666666667" y="45.212" width="4.826" height="4.826" fill="transparent"/><rect x="500.29533333333336" y="45.212" width="4.826" height="4.826" fill="transparent"/><rect x="711.962" y="45.212" width="4.826" height="4.826" fill="transparent"/><rect x="828.3786666666666" y="45.212" width="4.826" height="4.826" fill="transparent"/><rect x="913.0453333333334" y="45.212" width="4.826" height="4.826" fill="transparent"/><g transform="translate(915.46,47.63) scale(0.12050000000000001) rotate(0)"><path d="M19.9981 0.00193429L3.72652 -7.68637e-07L8.4784 4.75382L0 13.2345L6.76585 20L15.2462 11.5208L20 16.2746L19.9981 0.00193429Z" fill="#ffb4c3"/></g><rect x="987.1286666666666" y="45.212" width="4.826" height="4.826" fill="transparent"/><rect x="1018.8786666666666" y="45.212" width="4.826" height="4.826" fill="transparent"/><circle cx="1020.085" cy="48.835" r="1.205" fill="#68696f"/><rect x="1021.29" y="47.63" width="2.41" height="2.41" fill="#ffd743"/><rect x="1050.6286666666667" y="45.212" width="4.826" height="4.826" fill="transparent"/><rect x="1135.2953333333335" y="45.212" width="4.826" height="4.826" fill="transparent"/><rect x="1135.3" y="47.63" width="2.41" height="2.41" fill="#ffeef1"/><rect x="87.20666666666668" y="55.45666666666667" width="5.503333333333333" height="5.503333333333333" fill="transparent"/><g transform="translate(89.96,58.21) scale(0.1375) rotate(0)"><path d="M19.9981 0.00193429L3.72652 -7.68637e-07L8.4784 4.75382L0 13.2345L6.76585 20L15.2462 11.5208L20 16.2746L19.9981 0.00193429Z" fill="#ffde62"/></g><rect x="193.04" y="55.45666666666667" width="5.503333333333333" height="5.503333333333333" fill="transparent"/><g transform="translate(193.04,58.21) scale(0.1375) rotate(0)"><path fill-rule="evenodd" clip-rule="evenodd" d="M10 20C15.5228 20 20 15.5228 20 10C20 4.47715 15.5228 0 10 0C4.47715 0 0 4.47715 0 10C0 15.5228 4.47715 20 10 20ZM10 17C13.866 17 17 13.866 17 10C17 6.13401 13.866 3 10 3C6.13401 3 3 6.13401 3 10C3 13.866 6.13401 17 10 17Z" fill="#dbdbdd"/></g><rect x="320.04" y="55.45666666666667" width="5.503333333333333" height="5.503333333333333" fill="transparent"/><rect x="542.29" y="55.45666666666667" width="5.503333333333333" height="5.503333333333333" fill="transparent"/><rect x="669.29" y="55.45666666666667" width="5.503333333333333" height="5.503333333333333" fill="transparent"/><rect x="764.54" y="55.45666666666667" width="5.503333333333333" height="5.503333333333333" fill="transparent"/><rect x="838.6233333333333" y="55.45666666666667" width="5.503333333333333" height="5.503333333333333" fill="transparent"/><rect x="1007.9566666666667" y="55.45666666666667" width="5.503333333333333" height="5.503333333333333" fill="transparent"/><rect x="1187.8733333333334" y="55.45666666666667" width="5.503333333333333" height="5.503333333333333" fill="transparent"/><rect x="44.534666666666666" y="65.70133333333334" width="6.180666666666666" height="6.180666666666666" fill="transparent"/><g transform="translate(47.63,68.79) scale(0.1545) rotate(0)"><path d="M19.9981 0.00193429L3.72652 -7.68637e-07L8.4784 4.75382L0 13.2345L6.76585 20L15.2462 11.5208L20 16.2746L19.9981 0.00193429Z" fill="#ff476b"/></g><rect x="65.70133333333334" y="65.70133333333334" width="6.180666666666666" height="6.180666666666666" fill="transparent"/><g transform="translate(65.7,68.79) scale(0.1545) rotate(0)"><path fill-rule="evenodd" clip-rule="evenodd" d="M10 20C15.5228 20 20 15.5228 20 10C20 4.47715 15.5228 0 10 0C4.47715 0 0 4.47715 0 10C0 15.5228 4.47715 20 10 20ZM10 17C13.866 17 17 13.866 17 10C17 6.13401 13.866 3 10 3C6.13401 3 3 6.13401 3 10C3 13.866 6.13401 17 10 17Z" fill="#ff6281"/></g><rect x="277.368" y="65.70133333333334" width="6.180666666666666" height="6.180666666666666" fill="transparent"/><g transform="translate(277.37,65.7) scale(0.1545) rotate(0)"><path d="M19.9981 0.00193429L3.72652 -7.68637e-07L8.4784 4.75382L0 13.2345L6.76585 20L15.2462 11.5208L20 16.2746L19.9981 0.00193429Z" fill="#ffe06e"/></g><rect x="404.368" y="65.70133333333334" width="6.180666666666666" height="6.180666666666666" fill="transparent"/><rect x="668.9513333333333" y="65.70133333333334" width="6.180666666666666" height="6.180666666666666" fill="transparent"/><rect x="668.95" y="65.7" width="3.09" height="3.09" fill="#ffe688"/><rect x="732.4513333333333" y="65.70133333333334" width="6.180666666666666" height="6.180666666666666" fill="transparent"/><rect x="997.0346666666667" y="65.70133333333334" width="6.180666666666666" height="6.180666666666666" fill="transparent"/><rect x="1007.618" y="65.70133333333334" width="6.180666666666666" height="6.180666666666666" fill="transparent"/><rect x="1134.6180000000002" y="65.70133333333334" width="6.180666666666666" height="6.180666666666666" fill="transparent"/><path d="M 1137.71 71.88000000000001 A 3.09 3.09 0 0 1  1140.8 68.79 L 1137.71 71.88000000000001 A 3.09 3.09 0 0 0 1140.8 68.79" fill="#ff6785"/><rect x="118.27933333333334" y="75.94600000000001" width="6.8580000000000005" height="6.8580000000000005" fill="transparent"/><g transform="translate(121.71,79.38) scale(0.1715) rotate(0)"><path d="M19.9981 0.00193429L3.72652 -7.68637e-07L8.4784 4.75382L0 13.2345L6.76585 20L15.2462 11.5208L20 16.2746L19.9981 0.00193429Z" fill="#ff7691"/></g><rect x="234.696" y="75.94600000000001" width="6.8580000000000005" height="6.8580000000000005" fill="transparent"/><rect x="372.27933333333334" y="75.94600000000001" width="6.8580000000000005" height="6.8580000000000005" fill="transparent"/><rect x="520.446" y="75.94600000000001" width="6.8580000000000005" height="6.8580000000000005" fill="transparent"/><rect x="562.7793333333334" y="75.94600000000001" width="6.8580000000000005" height="6.8580000000000005" fill="transparent"/><rect x="605.1126666666667" y="75.94600000000001" width="6.8580000000000005" height="6.8580000000000005" fill="transparent"/><rect x="679.196" y="75.94600000000001" width="6.8580000000000005" height="6.8580000000000005" fill="transparent"/><rect x="689.7793333333334" y="75.94600000000001" width="6.8580000000000005" height="6.8580000000000005" fill="transparent"/><rect x="890.8626666666667" y="75.94600000000001" width="6.8580000000000005" height="6.8580000000000005" fill="transparent"/><rect x="912.0293333333334" y="75.94600000000001" width="6.8580000000000005" height="6.8580000000000005" fill="transparent"/><rect x="149.6906666666667" y="86.19066666666667" width="7.535333333333334" height="7.535333333333334" fill="transparent"/><rect x="223.774" y="86.19066666666667" width="7.535333333333334" height="7.535333333333334" fill="transparent"/><rect x="223.77" y="89.96" width="3.77" height="3.77" fill="#3a3b43"/><rect x="234.35733333333334" y="86.19066666666667" width="7.535333333333334" height="7.535333333333334" fill="transparent"/><g transform="translate(234.36,86.19) scale(0.1885) rotate(0)"><path fill-rule="evenodd" clip-rule="evenodd" d="M10 20C15.5228 20 20 15.5228 20 10C20 4.47715 15.5228 0 10 0C4.47715 0 0 4.47715 0 10C0 15.5228 4.47715 20 10 20ZM10 17C13.866 17 17 13.866 17 10C17 6.13401 13.866 3 10 3C6.13401 3 3 6.13401 3 10C3 13.866 6.13401 17 10 17Z" fill="#22242c"/></g><circle cx="240.015" cy="91.845" r="1.885" fill="#fff6d4"/><rect x="329.6073333333334" y="86.19066666666667" width="7.535333333333334" height="7.535333333333334" fill="transparent"/><rect x="340.1906666666667" y="86.19066666666667" width="7.535333333333334" height="7.535333333333334" fill="transparent"/><rect x="668.274" y="86.19066666666667" width="7.535333333333334" height="7.535333333333334" fill="transparent"/><rect x="763.524" y="86.19066666666667" width="7.535333333333334" height="7.535333333333334" fill="transparent"/><g transform="translate(763.52,89.96) scale(0.1885) rotate(0)"><path d="M19.9981 0.00193429L3.72652 -7.68637e-07L8.4784 4.75382L0 13.2345L6.76585 20L15.2462 11.5208L20 16.2746L19.9981 0.00193429Z" fill="#ff5375"/></g><rect x="805.8573333333334" y="86.19066666666667" width="7.535333333333334" height="7.535333333333334" fill="transparent"/><g transform="translate(809.63,86.19) scale(0.1885) rotate(0)"><path d="M19.9981 0.00193429L3.72652 -7.68637e-07L8.4784 4.75382L0 13.2345L6.76585 20L15.2462 11.5208L20 16.2746L19.9981 0.00193429Z" fill="#6e7075"/></g><rect x="879.9406666666667" y="86.19066666666667" width="7.535333333333334" height="7.535333333333334" fill="transparent"/><rect x="1081.024" y="86.19066666666667" width="7.535333333333334" height="7.535333333333334" fill="transparent"/><rect x="1102.1906666666666" y="86.19066666666667" width="7.535333333333334" height="7.535333333333334" fill="transparent"/><rect x="117.602" y="96.43533333333333" width="8.212666666666667" height="8.212666666666667" fill="transparent"/><rect x="128.18533333333335" y="96.43533333333333" width="8.212666666666667" height="8.212666666666667" fill="transparent"/><rect x="149.35200000000003" y="96.43533333333333" width="8.212666666666667" height="8.212666666666667" fill="transparent"/><g transform="translate(149.35,96.44) scale(0.20550000000000002) rotate(0)"><path d="M10 0L20 10L10 20L0 10L10 0Z" fill="#ff96ab"/></g><g transform="translate(149.35,100.54) scale(0.20550000000000002) rotate(0)"><path d="M10 0L20 10L10 20L0 10L10 0Z" fill="#ff92a8"/></g><rect x="170.5186666666667" y="96.43533333333333" width="8.212666666666667" height="8.212666666666667" fill="transparent"/><rect x="181.10200000000003" y="96.43533333333333" width="8.212666666666667" height="8.212666666666667" fill="transparent"/><rect x="466.85200000000003" y="96.43533333333333" width="8.212666666666667" height="8.212666666666667" fill="transparent"/><rect x="470.96" y="96.44" width="4.11" height="4.11" fill="#ff3d64"/><circle cx="468.90500000000003" cy="102.59500000000001" r="2.055" fill="#939498"/><rect x="604.4353333333333" y="96.43533333333333" width="8.212666666666667" height="8.212666666666667" fill="transparent"/><rect x="953.6853333333333" y="96.43533333333333" width="8.212666666666667" height="8.212666666666667" fill="transparent"/><rect x="1207.6853333333333" y="96.43533333333333" width="8.212666666666667" height="8.212666666666667" fill="transparent"/><rect x="1207.69" y="100.54" width="4.11" height="4.11" fill="#ffe275"/><rect x="53.763333333333335" y="106.68" width="8.89" height="8.89" fill="transparent"/><rect x="74.93" y="106.68" width="8.89" height="8.89" fill="transparent"/><rect x="212.51333333333335" y="106.68" width="8.89" height="8.89" fill="transparent"/><rect x="223.09666666666666" y="106.68" width="8.89" height="8.89" fill="transparent"/><circle cx="229.765" cy="113.35499999999999" r="2.225" fill="#c8c9cb"/><rect x="360.68000000000006" y="106.68" width="8.89" height="8.89" fill="transparent"/><rect x="360.68" y="106.68" width="4.45" height="4.45" fill="#ff4267"/><rect x="572.3466666666667" y="106.68" width="8.89" height="8.89" fill="transparent"/><rect x="582.9300000000001" y="106.68" width="8.89" height="8.89" fill="transparent"/><rect x="709.9300000000001" y="106.68" width="8.89" height="8.89" fill="transparent"/><path d="M 714.38 111.13 A 4.45 4.45 0 0 1  718.83 115.58 L 714.38 111.13 A 4.45 4.45 0 0 0 718.83 115.58" fill="#eeeeef"/><rect x="741.6800000000001" y="106.68" width="8.89" height="8.89" fill="transparent"/><rect x="963.9300000000001" y="106.68" width="8.89" height="8.89" fill="transparent"/><g transform="translate(968.38,111.13) scale(0.2225) rotate(0)"><path fill-rule="evenodd" clip-rule="evenodd" d="M10 20C15.5228 20 20 15.5228 20 10C20 4.47715 15.5228 0 10 0C4.47715 0 0 4.47715 0 10C0 15.5228 4.47715 20 10 20ZM10 17C13.866 17 17 13.866 17 10C17 6.13401 13.866 3 10 3C6.13401 3 3 6.13401 3 10C3 13.866 6.13401 17 10 17Z" fill="#ff6e8b"/></g><rect x="985.0966666666667" y="106.68" width="8.89" height="8.89" fill="transparent"/><rect x="989.54" y="106.68" width="4.45" height="4.45" fill="#fff3f5"/><rect x="1048.5966666666666" y="106.68" width="8.89" height="8.89" fill="transparent"/><rect x="1249.68" y="106.68" width="8.89" height="8.89" fill="transparent"/><circle cx="1256.355" cy="108.905" r="2.225" fill="#fffdf8"/><rect x="159.258" y="116.92466666666667" width="9.567333333333332" height="9.567333333333332" fill="transparent"/><g transform="translate(159.26,121.71) scale(0.23900000000000002) rotate(0)"><path d="M19.9981 0.00193429L3.72652 -7.68637e-07L8.4784 4.75382L0 13.2345L6.76585 20L15.2462 11.5208L20 16.2746L19.9981 0.00193429Z" fill="#ffd8e0"/></g><rect x="180.4246666666667" y="116.92466666666667" width="9.567333333333332" height="9.567333333333332" fill="transparent"/><rect x="243.9246666666667" y="116.92466666666667" width="9.567333333333332" height="9.567333333333332" fill="transparent"/><circle cx="246.30999999999997" cy="124.1" r="2.39" fill="#1e2029"/><rect x="275.67466666666667" y="116.92466666666667" width="9.567333333333332" height="9.567333333333332" fill="transparent"/><rect x="318.008" y="116.92466666666667" width="9.567333333333332" height="9.567333333333332" fill="transparent"/><rect x="413.258" y="116.92466666666667" width="9.567333333333332" height="9.567333333333332" fill="transparent"/><rect x="466.17466666666667" y="116.92466666666667" width="9.567333333333332" height="9.567333333333332" fill="transparent"/><g transform="translate(470.96,116.92) scale(0.23900000000000002) rotate(0)"><path d="M10 0L20 10L10 20L0 10L10 0Z" fill="#4e4f56"/></g><rect x="900.0913333333334" y="116.92466666666667" width="9.567333333333332" height="9.567333333333332" fill="transparent"/><rect x="1069.4246666666668" y="116.92466666666667" width="9.567333333333332" height="9.567333333333332" fill="transparent"/><rect x="1111.758" y="116.92466666666667" width="9.567333333333332" height="9.567333333333332" fill="transparent"/><rect x="1164.6746666666668" y="116.92466666666667" width="9.567333333333332" height="9.567333333333332" fill="transparent"/><g transform="translate(1164.67,116.92) scale(0.23900000000000002) rotate(0)"><path d="M10 0L20 10L10 20L0 10L10 0Z" fill="#ff839b"/></g><rect x="127.16933333333333" y="127.16933333333333" width="10.244666666666667" height="10.244666666666667" fill="transparent"/><circle cx="134.85" cy="129.73" r="2.56" fill="#95969a"/><rect x="275.336" y="127.16933333333333" width="10.244666666666667" height="10.244666666666667" fill="transparent"/><rect x="635.1693333333334" y="127.16933333333333" width="10.244666666666667" height="10.244666666666667" fill="transparent"/><path d="M 635.17 132.29 A 5.12 5.12 0 0 1  640.29 127.17 L 635.17 132.29 A 5.12 5.12 0 0 0 640.29 127.17" fill="#ff466b"/><rect x="1069.086" y="127.16933333333333" width="10.244666666666667" height="10.244666666666667" fill="transparent"/><rect x="1153.7526666666668" y="127.16933333333333" width="10.244666666666667" height="10.244666666666667" fill="transparent"/><path d="M 1153.75 132.29 A 5.12 5.12 0 0 1  1158.87 137.41 L 1153.75 132.29 A 5.12 5.12 0 0 0 1158.87 137.41" fill="#1a1c25"/><g transform="translate(1158.88,132.29) scale(0.256) rotate(0)"><path d="M10 0L20 10L10 20L0 10L10 0Z" fill="#f3f3f4"/></g><rect x="1174.9193333333333" y="127.16933333333333" width="10.244666666666667" height="10.244666666666667" fill="transparent"/><rect x="116.41666666666667" y="137.58333333333334" width="10.583333333333334" height="10.583333333333334" fill="transparent"/><g transform="translate(116.42,137.58) scale(0.2645) rotate(0)"><path d="M19.9981 0.00193429L3.72652 -7.68637e-07L8.4784 4.75382L0 13.2345L6.76585 20L15.2462 11.5208L20 16.2746L19.9981 0.00193429Z" fill="#ff3960"/></g><rect x="211.66666666666669" y="137.58333333333334" width="10.583333333333334" height="10.583333333333334" fill="transparent"/><rect x="264.58333333333337" y="137.58333333333334" width="10.583333333333334" height="10.583333333333334" fill="transparent"/><rect x="285.75" y="137.58333333333334" width="10.583333333333334" height="10.583333333333334" fill="transparent"/><rect x="359.83333333333337" y="137.58333333333334" width="10.583333333333334" height="10.583333333333334" fill="transparent"/><rect x="486.83333333333337" y="137.58333333333334" width="10.583333333333334" height="10.583333333333334" fill="transparent"/><circle cx="489.47499999999997" cy="145.525" r="2.645" fill="#ffacbc"/><rect x="550.3333333333334" y="137.58333333333334" width="10.583333333333334" height="10.583333333333334" fill="transparent"/><rect x="666.75" y="137.58333333333334" width="10.583333333333334" height="10.583333333333334" fill="transparent"/><rect x="973.6666666666667" y="137.58333333333334" width="10.583333333333334" height="10.583333333333334" fill="transparent"/><rect x="1259.4166666666667" y="137.58333333333334" width="10.583333333333334" height="10.583333333333334" fill="transparent"/><rect x="95.25" y="148.16666666666669" width="10.583333333333334" height="10.583333333333334" fill="transparent"/><g transform="translate(100.54,148.17) scale(0.2645) rotate(0)"><path d="M10 0L20 10L10 20L0 10L10 0Z" fill="#fffdf4"/></g><g transform="translate(95.25,153.46) scale(0.2645) rotate(0)"><path fill-rule="evenodd" clip-rule="evenodd" d="M10 20C15.5228 20 20 15.5228 20 10C20 4.47715 15.5228 0 10 0C4.47715 0 0 4.47715 0 10C0 15.5228 4.47715 20 10 20ZM10 17C13.866 17 17 13.866 17 10C17 6.13401 13.866 3 10 3C6.13401 3 3 6.13401 3 10C3 13.866 6.13401 17 10 17Z" fill="#ffd84a"/></g><rect x="148.16666666666669" y="148.16666666666669" width="10.583333333333334" height="10.583333333333334" fill="transparent"/><rect x="402.1666666666667" y="148.16666666666669" width="10.583333333333334" height="10.583333333333334" fill="transparent"/><rect x="402.17" y="153.46" width="5.29" height="5.29" fill="#ffe2e8"/><rect x="433.9166666666667" y="148.16666666666669" width="10.583333333333334" height="10.583333333333334" fill="transparent"/><rect x="497.4166666666667" y="148.16666666666669" width="10.583333333333334" height="10.583333333333334" fill="transparent"/><g transform="translate(502.71,148.17) scale(0.2645) rotate(0)"><path d="M10 0L20 10L10 20L0 10L10 0Z" fill="#ffea9b"/></g><rect x="613.8333333333334" y="148.16666666666669" width="10.583333333333334" height="10.583333333333334" fill="transparent"/><circle cx="616.475" cy="150.815" r="2.645" fill="#ffe379"/><g transform="translate(619.13,148.17) scale(0.2645) rotate(0)"><path d="M19.9981 0.00193429L3.72652 -7.68637e-07L8.4784 4.75382L0 13.2345L6.76585 20L15.2462 11.5208L20 16.2746L19.9981 0.00193429Z" fill="#ff5677"/></g><path d="M 613.83 153.46 A 5.29 5.29 0 0 1  619.12 158.75 L 613.83 153.46 A 5.29 5.29 0 0 0 619.12 158.75" fill="#67696f"/><rect x="698.5" y="148.16666666666669" width="10.583333333333334" height="10.583333333333334" fill="transparent"/><rect x="719.6666666666667" y="148.16666666666669" width="10.583333333333334" height="10.583333333333334" fill="transparent"/><rect x="751.4166666666667" y="148.16666666666669" width="10.583333333333334" height="10.583333333333334" fill="transparent"/><rect x="857.25" y="148.16666666666669" width="10.583333333333334" height="10.583333333333334" fill="transparent"/><rect x="984.25" y="148.16666666666669" width="10.583333333333334" height="10.583333333333334" fill="transparent"/><path d="M 989.54 153.46 A 5.29 5.29 0 0 1  994.8299999999999 158.75 L 989.54 153.46 A 5.29 5.29 0 0 0 994.8299999999999 158.75" fill="#fffbeb"/><rect x="1026.5833333333335" y="148.16666666666669" width="10.583333333333334" height="10.583333333333334" fill="transparent"/><g transform="translate(1031.88,153.46) scale(0.2645) rotate(0)"><path fill-rule="evenodd" clip-rule="evenodd" d="M10 20C15.5228 20 20 15.5228 20 10C20 4.47715 15.5228 0 10 0C4.47715 0 0 4.47715 0 10C0 15.5228 4.47715 20 10 20ZM10 17C13.866 17 17 13.866 17 10C17 6.13401 13.866 3 10 3C6.13401 3 3 6.13401 3 10C3 13.866 6.13401 17 10 17Z" fill="#2c2e36"/></g></g></svg>